<svg width="54" height="53" viewBox="0 0 54 53" fill="none" xmlns="http://www.w3.org/2000/svg">
<path d="M46.5683 26.2364C46.5874 28.8523 46.0843 31.4457 45.0885 33.8647C44.0926 36.2838 42.624 38.4797 40.7687 40.324C33.18 47.9128 20.7582 47.995 13.0666 40.5091C10.2447 37.7631 8.30836 34.2362 7.50628 30.3813C6.7042 26.5265 7.07304 22.5199 8.56541 18.8763C10.0578 15.2327 12.6055 12.1185 15.8813 9.93389C19.1571 7.74929 23.0112 6.59405 26.9485 6.6166C27.1949 6.62023 27.4374 6.67846 27.6585 6.7871C27.8796 6.89574 28.0739 7.05208 28.2274 7.24486C28.3808 7.43763 28.4895 7.66204 28.5458 7.90192C28.6021 8.14179 28.6044 8.39116 28.5527 8.63205C28.3384 9.58753 28.34 10.5788 28.5574 11.5336C28.7749 12.4883 29.2026 13.3825 29.8095 14.151C30.4164 14.9195 31.1871 15.5428 32.0655 15.9756C32.9439 16.4084 33.9078 16.6397 34.8869 16.6527C35.3233 16.6527 35.7418 16.8261 36.0503 17.1346C36.3589 17.4431 36.5322 17.8616 36.5322 18.298C36.5452 19.2771 36.7765 20.241 37.2093 21.1194C37.6421 21.9978 38.2654 22.7685 39.0339 23.3754C39.8024 23.9823 40.6966 24.41 41.6514 24.6275C42.6061 24.8449 43.5974 24.8465 44.5529 24.6322C44.7937 24.5805 45.0431 24.5829 45.283 24.6391C45.5229 24.6954 45.7473 24.8041 45.94 24.9576C46.1328 25.111 46.2892 25.3053 46.3978 25.5264C46.5064 25.7475 46.5647 25.99 46.5683 26.2364V26.2364Z" stroke="white" stroke-width="1.8803" stroke-linecap="round" stroke-linejoin="round"/>
<path d="M32.5836 37.8767C33.9466 37.8767 35.0515 36.7717 35.0515 35.4088C35.0515 34.0458 33.9466 32.9409 32.5836 32.9409C31.2206 32.9409 30.1157 34.0458 30.1157 35.4088C30.1157 36.7717 31.2206 37.8767 32.5836 37.8767Z" fill="white"/>
<path d="M19.4215 36.2314C20.7845 36.2314 21.8894 35.1265 21.8894 33.7635C21.8894 32.4005 20.7845 31.2956 19.4215 31.2956C18.0585 31.2956 16.9536 32.4005 16.9536 33.7635C16.9536 35.1265 18.0585 36.2314 19.4215 36.2314Z" fill="white"/>
<path d="M17.7765 24.7146C19.1395 24.7146 20.2444 23.6097 20.2444 22.2467C20.2444 20.8837 19.1395 19.7788 17.7765 19.7788C16.4135 19.7788 15.3086 20.8837 15.3086 22.2467C15.3086 23.6097 16.4135 24.7146 17.7765 24.7146Z" fill="white"/>
<path d="M28.4703 28.0051C29.8333 28.0051 30.9382 26.9002 30.9382 25.5372C30.9382 24.1742 29.8333 23.0693 28.4703 23.0693C27.1074 23.0693 26.0024 24.1742 26.0024 25.5372C26.0024 26.9002 27.1074 28.0051 28.4703 28.0051Z" fill="white"/>
</svg>
