<svg width="92" height="92" viewBox="0 0 92 92" fill="none" xmlns="http://www.w3.org/2000/svg">
<mask id="path-1-inside-1_16_7871" fill="white">
<path d="M57.8171 35.9105L56.8103 32.8924C56.7419 32.6867 56.5496 32.5484 56.3326 32.5484H55.6888L54.7967 29.8743C54.7283 29.6686 54.536 29.5303 54.319 29.5303H36.1968C35.9798 29.5303 35.7875 29.6686 35.7191 29.8743L34.8271 32.5484H34.1832C33.9662 32.5484 33.7745 32.6867 33.7055 32.8924L32.6987 35.9105C32.6474 36.0639 32.6735 36.2324 32.7682 36.3637C32.8628 36.495 33.0148 36.5725 33.1764 36.5725H34.7254L36.7017 61.2604C36.7228 61.522 36.9413 61.7232 37.2036 61.7232H53.3122C53.5745 61.7232 53.793 61.522 53.8141 61.2604L55.7905 36.5725H57.3394C57.501 36.5725 57.653 36.495 57.7477 36.3632C57.8423 36.2324 57.868 36.0639 57.8171 35.9105V35.9105ZM53.3525 54.4104H37.1633L36.1847 42.1886H54.3306L53.3525 54.4104ZM37.6682 60.7171L37.2439 55.4164H53.272L52.8476 60.7171H37.6682ZM54.4116 41.1831H36.1042L35.7352 36.5725H54.7806L54.4116 41.1831ZM33.8746 35.5664L34.5457 33.5544H35.19C35.407 33.5544 35.5993 33.4161 35.6677 33.2103L36.5597 30.5363H53.9566L54.8486 33.2103C54.9171 33.4161 55.1089 33.5544 55.3258 33.5544H55.9697L56.6407 35.5664H33.8746Z"/>
</mask>
<path d="M57.8171 35.9105L56.8103 32.8924C56.7419 32.6867 56.5496 32.5484 56.3326 32.5484H55.6888L54.7967 29.8743C54.7283 29.6686 54.536 29.5303 54.319 29.5303H36.1968C35.9798 29.5303 35.7875 29.6686 35.7191 29.8743L34.8271 32.5484H34.1832C33.9662 32.5484 33.7745 32.6867 33.7055 32.8924L32.6987 35.9105C32.6474 36.0639 32.6735 36.2324 32.7682 36.3637C32.8628 36.495 33.0148 36.5725 33.1764 36.5725H34.7254L36.7017 61.2604C36.7228 61.522 36.9413 61.7232 37.2036 61.7232H53.3122C53.5745 61.7232 53.793 61.522 53.8141 61.2604L55.7905 36.5725H57.3394C57.501 36.5725 57.653 36.495 57.7477 36.3632C57.8423 36.2324 57.868 36.0639 57.8171 35.9105V35.9105ZM53.3525 54.4104H37.1633L36.1847 42.1886H54.3306L53.3525 54.4104ZM37.6682 60.7171L37.2439 55.4164H53.272L52.8476 60.7171H37.6682ZM54.4116 41.1831H36.1042L35.7352 36.5725H54.7806L54.4116 41.1831ZM33.8746 35.5664L34.5457 33.5544H35.19C35.407 33.5544 35.5993 33.4161 35.6677 33.2103L36.5597 30.5363H53.9566L54.8486 33.2103C54.9171 33.4161 55.1089 33.5544 55.3258 33.5544H55.9697L56.6407 35.5664H33.8746Z" fill="#B13B38"/>
<path d="M56.8103 32.8924L50.992 34.8286L50.9935 34.8328L56.8103 32.8924ZM55.6888 32.5484L49.8719 34.4888L51.2701 38.6803H55.6888V32.5484ZM54.7967 29.8743L48.9785 31.8105L48.9799 31.8148L54.7967 29.8743ZM35.7191 29.8743L41.5359 31.8148L41.5374 31.8105L35.7191 29.8743ZM34.8271 32.5484V38.6803H39.2457L40.6439 34.4888L34.8271 32.5484ZM33.7055 32.8924L27.8915 30.9435L27.8886 30.952L33.7055 32.8924ZM32.6987 35.9105L38.5137 37.8567L38.5156 37.8509L32.6987 35.9105ZM34.7254 36.5725L40.8378 36.0832L40.3861 30.4405H34.7254V36.5725ZM36.7017 61.2604L30.5893 61.7497L30.5897 61.7544L36.7017 61.2604ZM53.8141 61.2604L59.9262 61.7544L59.9265 61.7497L53.8141 61.2604ZM55.7905 36.5725V30.4405H50.1297L49.678 36.0832L55.7905 36.5725ZM57.7477 36.3632L52.7799 32.7684L52.7734 32.7774L52.7669 32.7865L57.7477 36.3632ZM53.3525 54.4104V60.5423H59.0134L59.4649 54.8995L53.3525 54.4104ZM37.1633 54.4104L31.0509 54.8998L31.5027 60.5423H37.1633V54.4104ZM36.1847 42.1886V36.0566H29.5421L30.0723 42.678L36.1847 42.1886ZM54.3306 42.1886L60.443 42.6778L60.9729 36.0566H54.3306V42.1886ZM37.6682 60.7171L31.5558 61.2065L32.0075 66.8491H37.6682V60.7171ZM37.2439 55.4164V49.2844H30.6013L31.1314 55.9057L37.2439 55.4164ZM53.272 55.4164L59.3844 55.9057L59.9145 49.2844H53.272V55.4164ZM52.8476 60.7171V66.8491H58.5083L58.96 61.2065L52.8476 60.7171ZM54.4116 41.1831V47.3151H60.0725L60.5241 41.6723L54.4116 41.1831ZM36.1042 41.1831L29.9917 41.6723L30.4433 47.3151H36.1042V41.1831ZM35.7352 36.5725V30.4405H29.0928L29.6227 37.0616L35.7352 36.5725ZM54.7806 36.5725L60.8931 37.0616L61.423 30.4405H54.7806V36.5725ZM33.8746 35.5664L28.0576 33.6265L25.3656 41.6984H33.8746V35.5664ZM34.5457 33.5544V27.4224H30.1267L28.7286 31.6144L34.5457 33.5544ZM35.6677 33.2103L29.8509 31.2699L29.8494 31.2742L35.6677 33.2103ZM36.5597 30.5363V24.4043H32.1411L30.7429 28.5959L36.5597 30.5363ZM53.9566 30.5363L59.7734 28.5959L58.3752 24.4043H53.9566V30.5363ZM54.8486 33.2103L60.6669 31.2742L60.6655 31.2699L54.8486 33.2103ZM55.9697 33.5544L61.7867 31.6144L60.3886 27.4224H55.9697V33.5544ZM56.6407 35.5664V41.6984H65.1497L62.4577 33.6265L56.6407 35.5664ZM63.634 33.9701L62.6272 30.952L50.9935 34.8328L52.0003 37.8509L63.634 33.9701ZM62.6286 30.9563C61.7239 28.2376 59.1823 26.4164 56.3326 26.4164V38.6803C53.9169 38.6803 51.7598 37.1357 50.992 34.8286L62.6286 30.9563ZM56.3326 26.4164H55.6888V38.6803H56.3326V26.4164ZM61.5056 30.6079L60.6136 27.9339L48.9799 31.8148L49.8719 34.4888L61.5056 30.6079ZM60.615 27.9382C59.7104 25.2196 57.1687 23.3983 54.319 23.3983V35.6623C51.9033 35.6623 49.7462 34.1176 48.9785 31.8105L60.615 27.9382ZM54.319 23.3983H36.1968V35.6623H54.319V23.3983ZM36.1968 23.3983C33.3471 23.3983 30.8055 25.2196 29.9008 27.9382L41.5374 31.8105C40.7696 34.1176 38.6125 35.6623 36.1968 35.6623V23.3983ZM29.9022 27.9339L29.0102 30.6079L40.6439 34.4888L41.5359 31.8148L29.9022 27.9339ZM34.8271 26.4164H34.1832V38.6803H34.8271V26.4164ZM34.1832 26.4164C31.3238 26.4164 28.7959 28.2453 27.8915 30.9435L39.5195 34.8414C38.753 37.128 36.6087 38.6803 34.1832 38.6803V26.4164ZM27.8886 30.952L26.8818 33.9701L38.5156 37.8509L39.5224 34.8328L27.8886 30.952ZM26.8837 33.9644C26.2006 36.0055 26.5549 38.2306 27.7939 39.9495L37.7425 32.778C38.7922 34.2342 39.0941 36.1224 38.5137 37.8567L26.8837 33.9644ZM27.7939 39.9495C29.0454 41.6857 31.0514 42.7044 33.1764 42.7044V30.4405C34.9782 30.4405 36.6802 31.3043 37.7425 32.778L27.7939 39.9495ZM33.1764 42.7044H34.7254V30.4405H33.1764V42.7044ZM28.6129 37.0618L30.5893 61.7497L42.8141 60.7711L40.8378 36.0832L28.6129 37.0618ZM30.5897 61.7544C30.8685 65.2048 33.7505 67.8551 37.2036 67.8551V55.5912C40.1321 55.5912 42.5771 57.8391 42.8137 60.7664L30.5897 61.7544ZM37.2036 67.8551H53.3122V55.5912H37.2036V67.8551ZM53.3122 67.8551C56.7653 67.8551 59.6473 65.2049 59.9262 61.7544L47.7021 60.7664C47.9387 57.8391 50.3837 55.5912 53.3122 55.5912V67.8551ZM59.9265 61.7497L61.9029 37.0618L49.678 36.0832L47.7017 60.7711L59.9265 61.7497ZM55.7905 42.7044H57.3394V30.4405H55.7905V42.7044ZM57.3394 42.7044C59.4665 42.7044 61.4764 41.6834 62.7284 39.9399L52.7669 32.7865C53.8296 31.3066 55.5355 30.4405 57.3394 30.4405V42.7044ZM62.7154 39.958C63.9723 38.221 64.3052 35.9956 63.6378 33.9815L51.9964 37.8395C51.4307 36.1323 51.7122 34.2439 52.7799 32.7684L62.7154 39.958ZM53.3525 48.2784H37.1633V60.5423H53.3525V48.2784ZM43.2757 53.9209L42.2971 41.6992L30.0723 42.678L31.0509 54.8998L43.2757 53.9209ZM36.1847 48.3206H54.3306V36.0566H36.1847V48.3206ZM48.2182 41.6994L47.2401 53.9212L59.4649 54.8995L60.443 42.6778L48.2182 41.6994ZM43.7806 60.2278L43.3563 54.927L31.1314 55.9057L31.5558 61.2065L43.7806 60.2278ZM37.2439 61.5484H53.272V49.2844H37.2439V61.5484ZM47.1595 54.927L46.7352 60.2278L58.96 61.2065L59.3844 55.9057L47.1595 54.927ZM52.8476 54.5852H37.6682V66.8491H52.8476V54.5852ZM54.4116 35.0511H36.1042V47.3151H54.4116V35.0511ZM42.2166 40.6939L41.8476 36.0833L29.6227 37.0616L29.9917 41.6723L42.2166 40.6939ZM35.7352 42.7044H54.7806V30.4405H35.7352V42.7044ZM48.6682 36.0833L48.2992 40.6939L60.5241 41.6723L60.8931 37.0616L48.6682 36.0833ZM39.6916 37.5064L40.3627 35.4944L28.7286 31.6144L28.0576 33.6265L39.6916 37.5064ZM34.5457 39.6864H35.19V27.4224H34.5457V39.6864ZM35.19 39.6864C38.0397 39.6864 40.5813 37.8651 41.486 35.1465L29.8494 31.2742C30.6172 28.967 32.7743 27.4224 35.19 27.4224V39.6864ZM41.4846 35.1507L42.3766 32.4767L30.7429 28.5959L29.8509 31.2699L41.4846 35.1507ZM36.5597 36.6683H53.9566V24.4043H36.5597V36.6683ZM48.1397 32.4767L49.0317 35.1507L60.6655 31.2699L59.7734 28.5959L48.1397 32.4767ZM49.0303 35.1465C49.9327 37.8583 52.469 39.6864 55.3258 39.6864V27.4224C57.7487 27.4224 59.9014 28.9738 60.6669 31.2742L49.0303 35.1465ZM55.3258 39.6864H55.9697V27.4224H55.3258V39.6864ZM50.1526 35.4944L50.8237 37.5064L62.4577 33.6265L61.7867 31.6144L50.1526 35.4944ZM56.6407 29.4345H33.8746V41.6984H56.6407V29.4345Z" fill="#B63C3B" mask="url(#path-1-inside-1_16_7871)"/>
<mask id="path-3-inside-2_16_7871" fill="white">
<path d="M45.258 43.6147C43.2645 43.6147 41.6426 45.7586 41.6426 48.3934C41.6426 51.0282 43.2645 53.172 45.258 53.172C47.2514 53.172 48.8734 51.0282 48.8734 48.3934C48.8734 45.7586 47.2514 43.6147 45.258 43.6147ZM42.6494 48.3934C42.6494 47.4673 42.8819 46.6198 43.266 45.9628C43.2585 46.0604 43.2444 46.155 43.2444 46.2556C43.2444 47.7364 44.1288 48.8964 45.258 48.8964C45.7941 48.8964 46.2648 49.6605 46.2648 50.5312C46.2648 51.4019 45.7941 52.166 45.258 52.166C43.8198 52.166 42.6494 50.4738 42.6494 48.3934ZM47.2499 50.8239C47.2575 50.7264 47.2715 50.6318 47.2715 50.5312C47.2715 49.0503 46.3871 47.8904 45.258 47.8904C44.7218 47.8904 44.2512 47.1263 44.2512 46.2556C44.2512 45.3849 44.7218 44.6208 45.258 44.6208C46.6962 44.6208 47.8666 46.3129 47.8666 48.3934C47.8666 49.3194 47.6335 50.167 47.2499 50.8239Z"/>
</mask>
<path d="M45.258 43.6147C43.2645 43.6147 41.6426 45.7586 41.6426 48.3934C41.6426 51.0282 43.2645 53.172 45.258 53.172C47.2514 53.172 48.8734 51.0282 48.8734 48.3934C48.8734 45.7586 47.2514 43.6147 45.258 43.6147ZM42.6494 48.3934C42.6494 47.4673 42.8819 46.6198 43.266 45.9628C43.2585 46.0604 43.2444 46.155 43.2444 46.2556C43.2444 47.7364 44.1288 48.8964 45.258 48.8964C45.7941 48.8964 46.2648 49.6605 46.2648 50.5312C46.2648 51.4019 45.7941 52.166 45.258 52.166C43.8198 52.166 42.6494 50.4738 42.6494 48.3934ZM47.2499 50.8239C47.2575 50.7264 47.2715 50.6318 47.2715 50.5312C47.2715 49.0503 46.3871 47.8904 45.258 47.8904C44.7218 47.8904 44.2512 47.1263 44.2512 46.2556C44.2512 45.3849 44.7218 44.6208 45.258 44.6208C46.6962 44.6208 47.8666 46.3129 47.8666 48.3934C47.8666 49.3194 47.6335 50.167 47.2499 50.8239Z" fill="#B13B38"/>
<path d="M43.266 45.9628L49.3797 46.4359L37.9724 42.8678L43.266 45.9628ZM47.2499 50.8239L41.1362 50.3509L52.5453 53.9159L47.2499 50.8239ZM45.258 37.4828C41.9152 37.4828 39.3434 39.293 37.8126 41.3163C36.2827 43.3385 35.5106 45.8603 35.5106 48.3934H47.7746C47.7746 48.2916 47.8135 48.4241 47.5929 48.7157C47.3714 49.0084 46.6073 49.7467 45.258 49.7467V37.4828ZM35.5106 48.3934C35.5106 50.9264 36.2827 53.4482 37.8126 55.4705C39.3434 57.4938 41.9152 59.304 45.258 59.304V47.04C46.6073 47.04 47.3714 47.7783 47.5929 48.071C47.8135 48.3626 47.7746 48.4951 47.7746 48.3934H35.5106ZM45.258 59.304C48.6007 59.304 51.1726 57.4938 52.7033 55.4705C54.2333 53.4482 55.0053 50.9264 55.0053 48.3934H42.7414C42.7414 48.4951 42.7025 48.3626 42.9231 48.071C43.1445 47.7783 43.9087 47.04 45.258 47.04V59.304ZM55.0053 48.3934C55.0053 45.8603 54.2333 43.3385 52.7033 41.3163C51.1726 39.293 48.6007 37.4828 45.258 37.4828V49.7467C43.9087 49.7467 43.1445 49.0084 42.9231 48.7157C42.7025 48.4241 42.7414 48.2916 42.7414 48.3934H55.0053ZM48.7813 48.3934C48.7813 48.4409 48.7757 48.5146 48.7497 48.615C48.7245 48.7122 48.672 48.8656 48.5596 49.0578L37.9724 42.8678C36.993 44.5429 36.5174 46.4751 36.5174 48.3934H48.7813ZM37.1523 45.4897C37.1556 45.448 37.1584 45.4204 37.1571 45.4336C37.1546 45.459 37.1576 45.4287 37.1537 45.4681C37.1519 45.4857 37.1493 45.513 37.1463 45.5446C37.1353 45.6638 37.1124 45.9282 37.1124 46.2556H49.3764C49.3764 46.3731 49.3722 46.4705 49.3682 46.5402C49.3642 46.6082 49.3597 46.6573 49.3584 46.6715C49.3577 46.6789 49.3574 46.6821 49.358 46.6755C49.3584 46.6722 49.3587 46.6686 49.3594 46.6618C49.36 46.6558 49.3609 46.647 49.3618 46.6375C49.3653 46.6024 49.3727 46.5264 49.3797 46.4359L37.1523 45.4897ZM37.1124 46.2556C37.1124 49.4753 39.3016 55.0284 45.258 55.0284V42.7644C46.9549 42.7644 48.1354 43.6676 48.704 44.4133C49.2506 45.1302 49.3764 45.8168 49.3764 46.2556H37.1124ZM45.258 55.0284C42.4697 55.0284 41.0798 53.1526 40.7413 52.603C40.2789 51.8523 40.1328 51.1289 40.1328 50.5312H52.3967C52.3967 49.0627 52.0153 47.522 51.1836 46.1716C50.4757 45.0222 48.5823 42.7644 45.258 42.7644V55.0284ZM40.1328 50.5312C40.1328 49.9335 40.2789 49.2101 40.7413 48.4594C41.0798 47.9098 42.4697 46.034 45.258 46.034V58.298C48.5823 58.298 50.4757 56.0402 51.1836 54.8908C52.0153 53.5404 52.3967 51.9996 52.3967 50.5312H40.1328ZM45.258 46.034C47.1293 46.034 48.158 47.1385 48.4579 47.5722C48.7771 48.0338 48.7813 48.3415 48.7813 48.3934H36.5174C36.5174 50.5257 37.1068 52.7197 38.3708 54.5476C39.6154 56.3474 41.9485 58.298 45.258 58.298V46.034ZM53.3636 51.297C53.3604 51.3388 53.3575 51.3663 53.3588 51.3531C53.3613 51.3277 53.3584 51.3581 53.3623 51.3187C53.364 51.3011 53.3667 51.2737 53.3696 51.2421C53.3806 51.123 53.4035 50.8585 53.4035 50.5312H41.1396C41.1396 50.4136 41.1437 50.3163 41.1478 50.2466C41.1518 50.1786 41.1562 50.1295 41.1575 50.1153C41.1582 50.1079 41.1585 50.1047 41.1579 50.1112C41.1575 50.1146 41.1572 50.1181 41.1565 50.125C41.1559 50.1309 41.155 50.1398 41.1541 50.1492C41.1506 50.1843 41.1432 50.2603 41.1362 50.3509L53.3636 51.297ZM53.4035 50.5312C53.4035 47.3115 51.2143 41.7584 45.258 41.7584V54.0223C43.561 54.0223 42.3805 53.1192 41.812 52.3735C41.2654 51.6566 41.1396 50.9699 41.1396 50.5312H53.4035ZM45.258 41.7584C48.0462 41.7584 49.4362 43.6341 49.7747 44.1838C50.237 44.9345 50.3832 45.6578 50.3832 46.2556H38.1192C38.1192 47.724 38.5006 49.2648 39.3324 50.6152C40.0403 51.7646 41.9336 54.0223 45.258 54.0223V41.7584ZM50.3832 46.2556C50.3832 46.8533 50.237 47.5766 49.7747 48.3274C49.4362 48.877 48.0462 50.7528 45.258 50.7528V38.4888C41.9336 38.4888 40.0403 40.7466 39.3324 41.8959C38.5006 43.2464 38.1192 44.7871 38.1192 46.2556H50.3832ZM45.258 50.7528C43.3867 50.7528 42.3579 49.6482 42.0581 49.2146C41.7388 48.7529 41.7346 48.4453 41.7346 48.3934H53.9985C53.9985 46.261 53.4091 44.067 52.1451 42.2392C50.9005 40.4394 48.5675 38.4888 45.258 38.4888V50.7528ZM41.7346 48.3934C41.7346 48.3447 41.7404 48.2708 41.7663 48.171C41.7913 48.0742 41.8433 47.9224 41.9545 47.732L52.5453 53.9159C53.5212 52.2445 53.9985 50.3143 53.9985 48.3934H41.7346Z" fill="#B63C3B" mask="url(#path-3-inside-2_16_7871)"/>
<path d="M40.2691 33.0514C40.2691 33.2236 40.2522 33.3918 40.2198 33.5544H38.2136C38.1813 33.3918 38.1643 33.2236 38.1643 33.0514C38.1643 32.8791 38.1813 32.7109 38.2136 32.5483H40.2198C40.2522 32.7109 40.2691 32.8791 40.2691 33.0514Z" fill="#B13B38" stroke="#B63C3B" stroke-width="6.13198"/>
<mask id="path-6-inside-3_16_7871" fill="white">
<path d="M52.3053 32.5483H44.7544C44.4765 32.5483 44.251 32.7737 44.251 33.0514C44.251 33.329 44.4765 33.5544 44.7544 33.5544H52.3053C52.5832 33.5544 52.8087 33.329 52.8087 33.0514C52.8087 32.7737 52.5832 32.5483 52.3053 32.5483Z"/>
</mask>
<path d="M52.3053 32.5483H44.7544C44.4765 32.5483 44.251 32.7737 44.251 33.0514C44.251 33.329 44.4765 33.5544 44.7544 33.5544H52.3053C52.5832 33.5544 52.8087 33.329 52.8087 33.0514C52.8087 32.7737 52.5832 32.5483 52.3053 32.5483Z" fill="#B13B38"/>
<path d="M52.3053 26.4164H44.7544V38.6803H52.3053V26.4164ZM44.7544 26.4164C41.0943 26.4164 38.119 29.3827 38.119 33.0514H50.383C50.383 36.1647 47.8587 38.6803 44.7544 38.6803V26.4164ZM38.119 33.0514C38.119 36.72 41.0943 39.6863 44.7544 39.6863V27.4224C47.8587 27.4224 50.383 29.938 50.383 33.0514H38.119ZM44.7544 39.6863H52.3053V27.4224H44.7544V39.6863ZM52.3053 39.6863C55.9654 39.6863 58.9407 36.72 58.9407 33.0514H46.6767C46.6767 29.938 49.201 27.4224 52.3053 27.4224V39.6863ZM58.9407 33.0514C58.9407 29.3827 55.9654 26.4164 52.3053 26.4164V38.6803C49.201 38.6803 46.6767 36.1647 46.6767 33.0514H58.9407Z" fill="#B63C3B" mask="url(#path-6-inside-3_16_7871)"/>
<path fill-rule="evenodd" clip-rule="evenodd" d="M68.4641 20.9326C73.9472 26.7319 72.3693 35.6555 72.2502 43.6208C72.1278 51.8098 73.0728 60.5814 67.778 66.8161C62.0161 73.6006 53.0033 76.7637 44.0858 76.7841C34.8197 76.8054 25.4045 73.825 19.1995 66.9276C13.0888 60.1348 10.915 50.4991 12.3395 41.4949C13.6197 33.4027 19.7214 27.3451 26.2442 22.3972C31.9953 18.0348 38.8324 16.1686 46.0581 15.918C54.0036 15.6423 62.9946 15.1476 68.4641 20.9326Z" stroke="#B63C3B" stroke-width="0.766497"/>
</svg>
