<svg width="54" height="53" viewBox="0 0 54 53" fill="none" xmlns="http://www.w3.org/2000/svg">
<path d="M10.6163 19.8386C10.3709 19.8381 10.1287 19.7827 9.90742 19.6764C9.68618 19.5701 9.49153 19.4157 9.33772 19.2244C9.18391 19.0331 9.07485 18.8098 9.01852 18.571C8.96219 18.3321 8.96003 18.0836 9.01219 17.8438C10.3284 11.5095 17.8349 6.67651 26.9044 6.67651C35.974 6.67651 43.4805 11.5095 44.7967 17.8438C44.8489 18.0836 44.8467 18.3321 44.7904 18.571C44.734 18.8098 44.625 19.0331 44.4712 19.2244C44.3174 19.4157 44.1227 19.5701 43.9015 19.6764C43.6802 19.7827 43.438 19.8381 43.1926 19.8386H10.6163Z" stroke="white" stroke-width="1.8803" stroke-linecap="round" stroke-linejoin="round"/>
<path d="M43.357 34.646V37.9365C43.357 39.6819 42.6636 41.3558 41.4294 42.59C40.1952 43.8242 38.5213 44.5176 36.7759 44.5176H17.0327C15.2873 44.5176 13.6134 43.8242 12.3792 42.59C11.145 41.3558 10.4517 39.6819 10.4517 37.9365V34.646" stroke="white" stroke-width="1.8803" stroke-linecap="round" stroke-linejoin="round"/>
<path d="M6.33838 36.2913L14.5647 33.0007L22.791 36.2913L31.0174 33.0007L39.2437 36.2913L47.47 33.0007" stroke="white" stroke-width="1.8803" stroke-linecap="round" stroke-linejoin="round"/>
<path d="M5.51562 26.4197H48.2925" stroke="white" stroke-width="1.8803" stroke-linecap="round" stroke-linejoin="round"/>
</svg>
