<svg width="15" height="15" viewBox="0 0 15 15" fill="none" xmlns="http://www.w3.org/2000/svg">
<path d="M7.1499 4.33496C9.11865 4.33496 10.7437 5.95996 10.7437 7.92871C10.7437 9.92871 9.11865 11.5225 7.1499 11.5225C5.1499 11.5225 3.55615 9.92871 3.55615 7.92871C3.55615 5.95996 5.1499 4.33496 7.1499 4.33496ZM7.1499 10.2725C8.43115 10.2725 9.4624 9.24121 9.4624 7.92871C9.4624 6.64746 8.43115 5.61621 7.1499 5.61621C5.8374 5.61621 4.80615 6.64746 4.80615 7.92871C4.80615 9.24121 5.86865 10.2725 7.1499 10.2725ZM11.7124 4.20996C11.7124 4.67871 11.3374 5.05371 10.8687 5.05371C10.3999 5.05371 10.0249 4.67871 10.0249 4.20996C10.0249 3.74121 10.3999 3.36621 10.8687 3.36621C11.3374 3.36621 11.7124 3.74121 11.7124 4.20996ZM14.0874 5.05371C14.1499 6.20996 14.1499 9.67871 14.0874 10.835C14.0249 11.96 13.7749 12.9287 12.9624 13.7725C12.1499 14.585 11.1499 14.835 10.0249 14.8975C8.86865 14.96 5.3999 14.96 4.24365 14.8975C3.11865 14.835 2.1499 14.585 1.30615 13.7725C0.493652 12.9287 0.243652 11.96 0.181152 10.835C0.118652 9.67871 0.118652 6.20996 0.181152 5.05371C0.243652 3.92871 0.493652 2.92871 1.30615 2.11621C2.1499 1.30371 3.11865 1.05371 4.24365 0.991211C5.3999 0.928711 8.86865 0.928711 10.0249 0.991211C11.1499 1.05371 12.1499 1.30371 12.9624 2.11621C13.7749 2.92871 14.0249 3.92871 14.0874 5.05371ZM12.5874 12.0537C12.9624 11.1475 12.8687 8.95996 12.8687 7.92871C12.8687 6.92871 12.9624 4.74121 12.5874 3.80371C12.3374 3.20996 11.8687 2.70996 11.2749 2.49121C10.3374 2.11621 8.1499 2.20996 7.1499 2.20996C6.11865 2.20996 3.93115 2.11621 3.0249 2.49121C2.3999 2.74121 1.93115 3.20996 1.68115 3.80371C1.30615 4.74121 1.3999 6.92871 1.3999 7.92871C1.3999 8.95996 1.30615 11.1475 1.68115 12.0537C1.93115 12.6787 2.3999 13.1475 3.0249 13.3975C3.93115 13.7725 6.11865 13.6787 7.1499 13.6787C8.1499 13.6787 10.3374 13.7725 11.2749 13.3975C11.8687 13.1475 12.3687 12.6787 12.5874 12.0537Z" fill="#4F4F4F"/>
</svg>
