<svg width="53" height="53" viewBox="0 0 53 53" fill="none" xmlns="http://www.w3.org/2000/svg">
<path d="M26.626 36.2913V47.8082" stroke="white" stroke-width="1.8803" stroke-linecap="round" stroke-linejoin="round"/>
<path d="M18.3999 47.8081H34.8526" stroke="white" stroke-width="1.8803" stroke-linecap="round" stroke-linejoin="round"/>
<path d="M16.7543 5.03125H36.4975L41.8652 23.1909C42.196 24.3284 42.1085 25.5468 41.6184 26.6254C40.3149 29.5095 38.2072 31.9564 35.5479 33.6727C32.8887 35.389 29.7909 36.3019 26.6259 36.3019C23.4609 36.3019 20.3631 35.389 17.7039 33.6727C15.0447 31.9564 12.937 29.5095 11.6334 26.6254C11.1434 25.5468 11.0558 24.3284 11.3866 23.1909L16.7543 5.03125Z" stroke="white" stroke-width="1.8803" stroke-linecap="round" stroke-linejoin="round"/>
<path d="M12.127 20.723C14.3069 19.5507 19.3661 17.8643 26.6259 21.4839C34.3586 25.3503 39.6029 23.1703 41.5155 22.0392" stroke="white" stroke-width="1.8803" stroke-linecap="round" stroke-linejoin="round"/>
</svg>
