<svg width="18" height="13" viewBox="0 0 18 13" fill="none" xmlns="http://www.w3.org/2000/svg">
<path d="M17.1562 2.83496C17.5312 4.14746 17.5312 6.95996 17.5312 6.95996C17.5312 6.95996 17.5312 9.74121 17.1562 11.085C16.9688 11.835 16.375 12.3975 15.6562 12.585C14.3125 12.9287 9 12.9287 9 12.9287C9 12.9287 3.65625 12.9287 2.3125 12.585C1.59375 12.3975 1 11.835 0.8125 11.085C0.4375 9.74121 0.4375 6.95996 0.4375 6.95996C0.4375 6.95996 0.4375 4.14746 0.8125 2.83496C1 2.08496 1.59375 1.49121 2.3125 1.30371C3.65625 0.928711 9 0.928711 9 0.928711C9 0.928711 14.3125 0.928711 15.6562 1.30371C16.375 1.49121 16.9688 2.08496 17.1562 2.83496ZM7.25 9.49121L11.6875 6.95996L7.25 4.42871V9.49121Z" fill="#4F4F4F"/>
</svg>
